<?xml version="1.0" encoding="UTF-8"?>
<svg width="135.43" height="112.02" viewBox="0 0 135.432 112.025" xmlns="http://www.w3.org/2000/svg">
 <defs>
  <linearGradient id="b" x1="-141.33" x2="-140.53" y1="380.63" y2="379.8" gradientTransform="matrix(10 0 0 -10 1530.5 3810.3)" gradientUnits="userSpaceOnUse">
   <stop stop-color="#fff" offset="0"/>
   <stop stop-color="#fff" offset="1"/>
  </linearGradient>
  <linearGradient id="a" x1="-181.37" x2="-180.57" y1="381.82" y2="380.99" gradientTransform="matrix(10 0 0 -10 1930.9 3822.1)" gradientUnits="userSpaceOnUse">
   <stop stop-color="#fff" offset="0"/>
   <stop stop-color="#fff" offset="1"/>
  </linearGradient>
  <radialGradient id="c" cx="-236.22" cy="446.4" r=".3987" fy="446.41" gradientTransform="matrix(98.725 0 0 -98.672 23383 44077)" gradientUnits="userSpaceOnUse">
   <stop stop-color="#fff" offset="0"/>
   <stop stop-color="#ffc717" offset="1"/>
  </radialGradient>
 </defs>
 <path d="m117.37 54.633c0 27.234-22.113 49.335-49.361 49.335s-49.363-22.102-49.363-49.335 22.114-49.335 49.363-49.335 49.361 22.102 49.361 49.335z" fill="url(#c)" stroke="#010101" stroke-linejoin="round" stroke-width="2.4133"/>
 <g transform="translate(-74.489 36.103)">
  <path d="m133.49 9.065c0 6.531-5.32 11.831-11.876 11.831-6.555 0-11.875-5.3-11.875-11.831s5.32-11.832 11.875-11.832 11.876 5.301 11.876 11.832z" fill="#fff" stroke="#010101" stroke-linejoin="round" stroke-width="2.4178"/>
  <path d="m127.89 8.981c0 3.45-2.8 6.25-6.25 6.25s-6.25-2.8-6.25-6.25 2.8-6.25 6.25-6.25 6.25 2.8 6.25 6.25z" fill="#3a53a4"/>
  <path d="m125.39 9.038c0 2.07-1.68 3.75-3.75 3.75s-3.75-1.68-3.75-3.75 1.68-3.75 3.75-3.75 3.75 1.68 3.75 3.75z" fill="#010101"/>
  <path d="m125.88 7.788c0 2.76-2.24 5-5 5s-5-2.24-5-5 2.24-5 5-5 5 2.24 5 5z" fill="url(#b)"/>
 </g>
 <g transform="translate(-34.45 34.916)">
  <path d="m133.48 9.064c0 6.531-5.32 11.832-11.875 11.832s-11.876-5.301-11.876-11.832 5.32-11.832 11.876-11.832c6.555 1e-3 11.875 5.302 11.875 11.832z" fill="#fff" stroke="#010101" stroke-linejoin="round" stroke-width="2.4178"/>
  <path d="m127.89 8.981c0 3.45-2.801 6.25-6.25 6.25s-6.25-2.8-6.25-6.25 2.8-6.25 6.25-6.25 6.25 2.8 6.25 6.25z" fill="#3a53a4"/>
  <path d="m125.39 9.038c0 2.07-1.68 3.75-3.75 3.75s-3.75-1.68-3.75-3.75 1.681-3.75 3.75-3.75 3.75 1.68 3.75 3.75z" fill="#010101"/>
  <path d="m125.88 7.788c0 2.76-2.24 5-5 5s-5-2.24-5-5 2.239-5 5-5 5 2.24 5 5z" fill="url(#a)"/>
 </g>
 <path d="m40.439 75.744c8.397 12.375 49.498 11.933 57.452-3.535" fill="none" stroke="#010101" stroke-linejoin="round" stroke-width="2.5"/>
 <path d="m67.734,27.3c-1.152-2.556-3.168-4.392-6.444-5.652-3.348-1.404-8.424-2.592-12.852-2.016-4.572.576-9.972,2.736-13.284,5.652-3.276,2.952-3.204,8.28-6.048,11.664-2.952,3.24-6.696,5.76-11.376,7.704l-4.176-.252c1.044-7.848 3.204-14.508 6.48-20.52 3.132-6.012 7.38-11.268 12.888-15.192 5.616-4.176 14.364-7.488 20.268-8.532 5.688-.9 9.216,2.88 14.076,2.988 4.824-.108 9.036-3.888 14.975-2.988 5.94,1.044 14.652,4.356 20.305,8.532 5.399,3.96 9.504,9.252 12.888,15.192 3.42,5.832 5.904,12.24 7.596,19.62l-4.355,1.368c-5.22-2.052-9.288-4.644-12.349-7.92-2.987-3.492-2.951-8.676-6.012-11.664-3.42-2.916-8.82-5.076-13.284-5.652-4.536-.576-9.611.612-12.852,2.016-3.313,1.26-5.328,3.096-6.444,5.652z" fill-rule="evenodd" stroke="#000" stroke-miterlimit="10" stroke-width=".036"/>
 <path d="m67.05,22.044c-1.548-1.8-3.348-3.06-5.544-3.924-2.16-.9-4.644-1.152-7.596-1.152-3.204,0-7.416.108-10.836,1.152-3.456,1.044-7.38,2.664-9.684,4.86-2.304,2.124-2.52,4.536-4.14,7.38-1.836,2.736-3.96,6.444-6.228,8.748-2.304,2.16-4.716,3.672-7.38,4.392 .612-4.536 2.196-8.964 4.608-13.824 2.376-5.04 5.724-10.836 9.9-15.012 4.212-4.248 10.296-7.488 14.76-9.432 4.248-1.98 6.984-2.124 10.836-1.836 3.816.252 8.136,3.348 11.988,3.456 3.708-.108 6.912-3.204 10.583-3.456 3.528-.324 6.12-.216 10.836,1.836 4.752,1.944 12.385,5.976 17.064,10.152 4.464,4.14 7.236,9.684 9.684,14.292 2.34,4.572 3.924,8.604 4.608,12.672-2.7.36-5.364-.468-7.848-2.772-2.593-2.448-5.473-7.956-7.381-10.836-1.943-2.88-2.376-4.284-4.355-6.012-2.124-1.8-5.185-3.348-8.064-4.356-3.023-1.044-6.048-2.16-9.468-2.088-3.528,0-8.063.756-10.836,1.836-2.843.972-4.499,2.232-5.507,3.924z" fill="#e0e0e0" fill-rule="evenodd" stroke="#000" stroke-miterlimit="10" stroke-width=".036"/>
 <path d="m5.778 50.808c0 5.688 4.608 10.26 10.26 10.26 5.688 0 10.26-4.572 10.26-10.26 0-5.652-4.572-10.26-10.26-10.26-5.652 0-10.26 4.608-10.26 10.26z" fill-rule="evenodd" stroke="#000" stroke-miterlimit="10" stroke-width=".036"/>
 <path d="m8.19 50.592c0 4.464 3.6 8.064 8.064 8.064 4.428 0 8.028-3.6 8.028-8.064 0-4.428-3.6-8.028-8.028-8.028-4.464 0-8.064 3.6-8.064 8.028z" fill="#e0e0e0" fill-rule="evenodd" stroke="#000" stroke-miterlimit="10" stroke-width=".036"/>
 <path d="m18.63,47.46c.36,1.044.612,2.124.468,3.24-.144,1.152-.396,2.592-1.152,3.204-.936.396-3.168.216-3.924-.684-.72-1.044-1.08-2.808-.684-5.292-1.656,2.52-2.196,4.464-1.62,5.976s3.168,2.808 4.86,2.771c1.692-.18 4.068-2.195 4.608-3.671 .252-1.584-.468-3.384-2.556-5.544z" fill-rule="evenodd" stroke="#000" stroke-miterlimit="10" stroke-width=".036"/>
 <path d="m3.474 68.557c0 5.688 4.608 10.26 10.26 10.26 5.688 0 10.26-4.572 10.26-10.26 0-5.652-4.572-10.261-10.26-10.261-5.652 0-10.26 4.608-10.26 10.261z" fill-rule="evenodd" stroke="#000" stroke-miterlimit="10" stroke-width=".036"/>
 <path d="m5.886 68.34c0 4.465 3.6 8.064 8.064 8.064 4.428 0 8.028-3.6 8.028-8.064 0-4.428-3.6-8.027-8.028-8.027-4.464 0-8.064 3.599-8.064 8.027z" fill="#e0e0e0" fill-rule="evenodd" stroke="#000" stroke-miterlimit="10" stroke-width=".036"/>
 <path d="m18.666,67.548c-.396,1.044-.792,2.089-1.584,2.845-.828.792-1.98,1.907-2.88,1.836-1.044-.36-2.736-1.62-2.7-2.952-.036-1.332.864-2.772 2.7-4.608-2.916,1.008-4.428,2.269-4.932,3.78-.504,1.476.756,4.212 2.124,5.148 1.296.756 4.608.863 5.904-.108 1.26-1.045 1.584-3.025 1.368-5.941z" fill-rule="evenodd" stroke="#000" stroke-miterlimit="10" stroke-width=".036"/>
 <path d="m6.93,85.152c0,5.688 4.608,10.26 10.26,10.26 5.688,0 10.26-4.572 10.26-10.26 0-5.652-4.572-10.26-10.26-10.26-5.652.001-10.26,4.608-10.26,10.26z" fill-rule="evenodd" stroke="#000" stroke-miterlimit="10" stroke-width=".036"/>
 <path d="m9.342 84.937c0 4.463 3.636 8.063 8.064 8.063s8.028-3.6 8.028-8.063c0-4.429-3.6-8.028-8.028-8.028s-8.064 3.599-8.064 8.028z" fill="#e0e0e0" fill-rule="evenodd" stroke="#000" stroke-miterlimit="10" stroke-width=".036"/>
 <path d="m16.398,81.408c.972.612 1.764,1.26 2.376,2.232 .504.899 1.476,2.304 1.116,3.239-.468.828-2.268,2.16-3.456,1.908-1.26-.324-2.556-1.548-3.888-3.672 .324,2.988 1.116,4.824 2.52,5.652 1.332.756 4.284.144 5.508-.864 1.116-1.188 1.908-4.356 1.26-5.76-.756-1.475-2.52-2.338-5.436-2.735z" fill-rule="evenodd" stroke="#000" stroke-miterlimit="10" stroke-width=".036"/>
 <path d="m0.018 101.75c0 5.688 4.608 10.26 10.26 10.26 5.688 0 10.26-4.571 10.26-10.26 0-5.651-4.572-10.26-10.26-10.26-5.652 0-10.26 4.609-10.26 10.26z" fill-rule="evenodd" stroke="#000" stroke-miterlimit="10" stroke-width=".036"/>
 <path d="m2.43 101.53c0 4.464 3.6 8.064 8.064 8.064 4.428 0 8.028-3.601 8.028-8.064 0-4.428-3.6-8.028-8.028-8.028-4.464 0-8.064 3.6-8.064 8.028z" fill="#e0e0e0" fill-rule="evenodd" stroke="#000" stroke-miterlimit="10" stroke-width=".036"/>
 <path d="m5.742,104.592c.468-1.044 1.08-1.943 1.98-2.556 .792-.756 2.16-1.728 3.132-1.404 .9.36 2.34,1.908 2.232,3.276-.216,1.26-1.332,2.556-3.348,4.176 2.88-.576 4.788-1.62 5.436-2.987 .612-1.549-.216-4.32-1.368-5.4-1.26-1.152-4.5-1.548-5.832-.756-1.404.828-2.052,2.663-2.232,5.651z" fill-rule="evenodd" stroke="#000" stroke-miterlimit="10" stroke-width=".036"/>
 <path d="m129.65 50.808c0 5.688-4.571 10.26-10.224 10.26-5.688 0-10.26-4.572-10.26-10.26 0-5.652 4.571-10.26 10.26-10.26 5.653 0 10.224 4.608 10.224 10.26z" fill-rule="evenodd" stroke="#000" stroke-miterlimit="10" stroke-width=".036"/>
 <path d="m127.24 50.592c0 4.464-3.6 8.064-8.027 8.064-4.464 0-8.064-3.6-8.064-8.064 0-4.428 3.601-8.028 8.064-8.028 4.428 0 8.027 3.6 8.027 8.028z" fill="#e0e0e0" fill-rule="evenodd" stroke="#000" stroke-miterlimit="10" stroke-width=".036"/>
 <path d="m116.838,47.46c-.396,1.044-.648,2.124-.468,3.24 .035,1.152.323,2.592 1.151,3.204 .864.396 3.096.216 3.924-.684 .685-1.044 1.044-2.808.685-5.292 1.584,2.52 2.124,4.464 1.62,5.976-.685,1.512-3.276,2.808-4.86,2.771-1.764-.18-4.176-2.195-4.608-3.671-.289-1.584.432-3.384 2.556-5.544z" fill-rule="evenodd" stroke="#000" stroke-miterlimit="10" stroke-width=".036"/>
 <path d="m131.96 68.557c0 5.688-4.572 10.26-10.225 10.26-5.688 0-10.26-4.572-10.26-10.26 0-5.652 4.572-10.261 10.26-10.261 5.653 0 10.225 4.608 10.225 10.261z" fill-rule="evenodd" stroke="#000" stroke-miterlimit="10" stroke-width=".036"/>
 <path d="m129.55 68.34c0 4.465-3.601 8.064-8.028 8.064-4.464 0-8.063-3.6-8.063-8.064 0-4.428 3.6-8.027 8.063-8.027 4.427 0 8.028 3.599 8.028 8.027z" fill="#e0e0e0" fill-rule="evenodd" stroke="#000" stroke-miterlimit="10" stroke-width=".036"/>
 <path d="m116.766,67.548c.288,1.044.828,2.089 1.62,2.845 .72.792 1.908,1.907 2.88,1.836 .937-.36 2.628-1.62 2.7-2.952 0-1.332-.9-2.772-2.7-4.608 2.88,1.008 4.392,2.269 4.932,3.78 .396,1.476-.827,4.212-2.124,5.148-1.403.756-4.716.863-5.903-.108-1.262-1.045-1.73-3.025-1.405-5.941z" fill-rule="evenodd" stroke="#000" stroke-miterlimit="10" stroke-width=".036"/>
 <path d="m128.5 85.152c0 5.688-4.572 10.26-10.261 10.26-5.651 0-10.224-4.572-10.224-10.26 0-5.652 4.572-10.26 10.224-10.26 5.689 1e-3 10.261 4.608 10.261 10.26z" fill-rule="evenodd" stroke="#000" stroke-miterlimit="10" stroke-width=".036"/>
 <path d="m126.09 84.937c0 4.464-3.601 8.063-8.028 8.063-4.464 0-8.063-3.6-8.063-8.063 0-4.429 3.6-8.028 8.063-8.028 4.427-1e-3 8.028 3.599 8.028 8.028z" fill="#e0e0e0" fill-rule="evenodd" stroke="#000" stroke-miterlimit="10" stroke-width=".036"/>
 <path d="m119.069,81.408c-1.044.612-1.836,1.26-2.376,2.232-.576.899-1.655,2.304-1.151,3.239 .396.828 2.16,2.16 3.491,1.908 1.225-.324 2.521-1.548 3.889-3.672-.36,2.988-1.152,4.824-2.521,5.652-1.439.756-4.392.144-5.508-.864-1.188-1.188-1.979-4.356-1.26-5.76 .721-1.475 2.484-2.338 5.436-2.735z" fill-rule="evenodd" stroke="#000" stroke-miterlimit="10" stroke-width=".036"/>
 <path d="m135.41 101.75c0 5.688-4.572 10.26-10.225 10.26-5.688 0-10.26-4.571-10.26-10.26 0-5.651 4.572-10.26 10.26-10.26 5.653 0 10.225 4.609 10.225 10.26z" fill-rule="evenodd" stroke="#000" stroke-miterlimit="10" stroke-width=".036"/>
 <path d="m133 101.53c0 4.464-3.601 8.064-8.028 8.064-4.464 0-8.064-3.601-8.064-8.064 0-4.428 3.601-8.028 8.064-8.028 4.427 0 8.028 3.6 8.028 8.028z" fill="#e0e0e0" fill-rule="evenodd" stroke="#000" stroke-miterlimit="10" stroke-width=".036"/>
 <path d="m129.726,104.592c-.468-1.044-1.188-1.943-2.016-2.556-1.008-.756-2.232-1.728-3.133-1.404-.972.36-2.447,1.908-2.195,3.276 .18,1.26 1.296,2.556 3.348,4.176-2.952-.576-4.716-1.62-5.436-2.987-.756-1.549.107-4.32 1.332-5.4 1.115-1.152 4.5-1.548 5.867-.756 1.332.828 2.124,2.663 2.233,5.651z" fill-rule="evenodd" stroke="#000" stroke-miterlimit="10" stroke-width=".036"/>
</svg>
